<mxfile host="app.diagrams.net" modified="2022-03-05T16:26:14.038Z" agent="5.0 (Windows NT 10.0; Win64; x64) AppleWebKit/537.36 (KHTML, like Gecko) Chrome/98.0.4758.102 Safari/537.36" etag="OpgbK5qmBc-taT8mntjp" version="16.6.4" type="github">
  <diagram id="16u3QC0gG3P5N7qWQo-6" name="Page-1">
    <mxGraphModel dx="1822" dy="1240" grid="1" gridSize="10" guides="1" tooltips="1" connect="1" arrows="1" fold="1" page="1" pageScale="1" pageWidth="1169" pageHeight="827" math="0" shadow="0">
      <root>
        <mxCell id="0" />
        <mxCell id="1" parent="0" />
        <mxCell id="Vg_fdwR3Dp5vmPGhpIbs-1" value="ConnectionProvider" style="swimlane;fontStyle=1;align=center;verticalAlign=top;childLayout=stackLayout;horizontal=1;startSize=26;horizontalStack=0;resizeParent=1;resizeParentMax=0;resizeLast=0;collapsible=1;marginBottom=0;" vertex="1" parent="1">
          <mxGeometry x="120" y="560" width="340" height="70" as="geometry" />
        </mxCell>
        <mxCell id="Vg_fdwR3Dp5vmPGhpIbs-2" value="+ getConnection(): Connection&#xa;+ getConnection(args: CommandArguments): Connection" style="text;strokeColor=none;fillColor=none;align=left;verticalAlign=top;spacingLeft=4;spacingRight=4;overflow=hidden;rotatable=0;points=[[0,0.5],[1,0.5]];portConstraint=eastwest;" vertex="1" parent="Vg_fdwR3Dp5vmPGhpIbs-1">
          <mxGeometry y="26" width="340" height="44" as="geometry" />
        </mxCell>
        <mxCell id="Vg_fdwR3Dp5vmPGhpIbs-3" value="PooledConnectionProvider" style="swimlane;fontStyle=1;align=center;verticalAlign=top;childLayout=stackLayout;horizontal=1;startSize=26;horizontalStack=0;resizeParent=1;resizeParentMax=0;resizeLast=0;collapsible=1;marginBottom=0;" vertex="1" parent="1">
          <mxGeometry x="120" y="690" width="340" height="70" as="geometry" />
        </mxCell>
        <mxCell id="Vg_fdwR3Dp5vmPGhpIbs-4" value="+ getConnection(): Connection&#xa;+ getConnection(args: CommandArguments): Connection" style="text;strokeColor=none;fillColor=none;align=left;verticalAlign=top;spacingLeft=4;spacingRight=4;overflow=hidden;rotatable=0;points=[[0,0.5],[1,0.5]];portConstraint=eastwest;" vertex="1" parent="Vg_fdwR3Dp5vmPGhpIbs-3">
          <mxGeometry y="26" width="340" height="44" as="geometry" />
        </mxCell>
        <mxCell id="Vg_fdwR3Dp5vmPGhpIbs-5" value="UnifiedJedis" style="swimlane;fontStyle=1;align=center;verticalAlign=top;childLayout=stackLayout;horizontal=1;startSize=26;horizontalStack=0;resizeParent=1;resizeParentMax=0;resizeLast=0;collapsible=1;marginBottom=0;" vertex="1" parent="1">
          <mxGeometry x="640" y="670" width="310" height="80" as="geometry" />
        </mxCell>
        <mxCell id="Vg_fdwR3Dp5vmPGhpIbs-6" value="+ provider: ConnectionProvider&#xa;+ executor CommandExecutor&#xa;+ commandObjects: CommandObjects" style="text;strokeColor=none;fillColor=none;align=left;verticalAlign=top;spacingLeft=4;spacingRight=4;overflow=hidden;rotatable=0;points=[[0,0.5],[1,0.5]];portConstraint=eastwest;" vertex="1" parent="Vg_fdwR3Dp5vmPGhpIbs-5">
          <mxGeometry y="26" width="310" height="54" as="geometry" />
        </mxCell>
        <mxCell id="Vg_fdwR3Dp5vmPGhpIbs-7" value="JedisCluster" style="swimlane;fontStyle=1;align=center;verticalAlign=top;childLayout=stackLayout;horizontal=1;startSize=26;horizontalStack=0;resizeParent=1;resizeParentMax=0;resizeLast=0;collapsible=1;marginBottom=0;" vertex="1" parent="1">
          <mxGeometry x="655" y="827" width="280" height="50" as="geometry" />
        </mxCell>
        <mxCell id="Vg_fdwR3Dp5vmPGhpIbs-8" value="+ getClusterNodes: Map&lt;String, ConnectionPool&gt;" style="text;strokeColor=none;fillColor=none;align=left;verticalAlign=top;spacingLeft=4;spacingRight=4;overflow=hidden;rotatable=0;points=[[0,0.5],[1,0.5]];portConstraint=eastwest;" vertex="1" parent="Vg_fdwR3Dp5vmPGhpIbs-7">
          <mxGeometry y="26" width="280" height="24" as="geometry" />
        </mxCell>
        <mxCell id="Vg_fdwR3Dp5vmPGhpIbs-9" value="CommandExecutor" style="swimlane;fontStyle=1;align=center;verticalAlign=top;childLayout=stackLayout;horizontal=1;startSize=26;horizontalStack=0;resizeParent=1;resizeParentMax=0;resizeLast=0;collapsible=1;marginBottom=0;" vertex="1" parent="1">
          <mxGeometry x="120" y="440" width="350" height="50" as="geometry" />
        </mxCell>
        <mxCell id="Vg_fdwR3Dp5vmPGhpIbs-10" value="+ executeCommand(commandObject: CommandObject&lt;T&gt;): T&#xa;" style="text;strokeColor=none;fillColor=none;align=left;verticalAlign=top;spacingLeft=4;spacingRight=4;overflow=hidden;rotatable=0;points=[[0,0.5],[1,0.5]];portConstraint=eastwest;" vertex="1" parent="Vg_fdwR3Dp5vmPGhpIbs-9">
          <mxGeometry y="26" width="350" height="24" as="geometry" />
        </mxCell>
        <mxCell id="Vg_fdwR3Dp5vmPGhpIbs-11" value="DefaultCommandExecutor" style="swimlane;fontStyle=1;align=center;verticalAlign=top;childLayout=stackLayout;horizontal=1;startSize=26;horizontalStack=0;resizeParent=1;resizeParentMax=0;resizeLast=0;collapsible=1;marginBottom=0;" vertex="1" parent="1">
          <mxGeometry x="680" y="400" width="190" height="50" as="geometry" />
        </mxCell>
        <mxCell id="Vg_fdwR3Dp5vmPGhpIbs-12" value="+ provider: ConnectionProvider" style="text;strokeColor=none;fillColor=none;align=left;verticalAlign=top;spacingLeft=4;spacingRight=4;overflow=hidden;rotatable=0;points=[[0,0.5],[1,0.5]];portConstraint=eastwest;" vertex="1" parent="Vg_fdwR3Dp5vmPGhpIbs-11">
          <mxGeometry y="26" width="190" height="24" as="geometry" />
        </mxCell>
        <mxCell id="Vg_fdwR3Dp5vmPGhpIbs-13" value="ClusterCommandExecutor" style="swimlane;fontStyle=1;align=center;verticalAlign=top;childLayout=stackLayout;horizontal=1;startSize=26;horizontalStack=0;resizeParent=1;resizeParentMax=0;resizeLast=0;collapsible=1;marginBottom=0;" vertex="1" parent="1">
          <mxGeometry x="680" y="490" width="240" height="80" as="geometry" />
        </mxCell>
        <mxCell id="Vg_fdwR3Dp5vmPGhpIbs-14" value="+ provider: ConnectionProvider&#xa;+ maxAttempts: int&#xa;+ maxTotalRetriesDuration: Duration" style="text;strokeColor=none;fillColor=none;align=left;verticalAlign=top;spacingLeft=4;spacingRight=4;overflow=hidden;rotatable=0;points=[[0,0.5],[1,0.5]];portConstraint=eastwest;" vertex="1" parent="Vg_fdwR3Dp5vmPGhpIbs-13">
          <mxGeometry y="26" width="240" height="54" as="geometry" />
        </mxCell>
        <mxCell id="Vg_fdwR3Dp5vmPGhpIbs-15" value="" style="endArrow=block;dashed=1;endFill=0;endSize=12;html=1;rounded=0;exitX=-0.011;exitY=0.097;exitDx=0;exitDy=0;exitPerimeter=0;entryX=1.006;entryY=0.028;entryDx=0;entryDy=0;entryPerimeter=0;" edge="1" parent="1" source="Vg_fdwR3Dp5vmPGhpIbs-12" target="Vg_fdwR3Dp5vmPGhpIbs-10">
          <mxGeometry width="160" relative="1" as="geometry">
            <mxPoint x="500" y="480" as="sourcePoint" />
            <mxPoint x="660" y="480" as="targetPoint" />
          </mxGeometry>
        </mxCell>
        <mxCell id="Vg_fdwR3Dp5vmPGhpIbs-16" value="" style="endArrow=block;dashed=1;endFill=0;endSize=12;html=1;rounded=0;exitX=0.5;exitY=0;exitDx=0;exitDy=0;" edge="1" parent="1" source="Vg_fdwR3Dp5vmPGhpIbs-3">
          <mxGeometry width="160" relative="1" as="geometry">
            <mxPoint x="200" y="640" as="sourcePoint" />
            <mxPoint x="290" y="630" as="targetPoint" />
          </mxGeometry>
        </mxCell>
        <mxCell id="Vg_fdwR3Dp5vmPGhpIbs-17" value="Extends" style="endArrow=block;endSize=16;endFill=0;html=1;rounded=0;entryX=0.5;entryY=1;entryDx=0;entryDy=0;" edge="1" parent="1" source="Vg_fdwR3Dp5vmPGhpIbs-7" target="Vg_fdwR3Dp5vmPGhpIbs-5">
          <mxGeometry width="160" relative="1" as="geometry">
            <mxPoint x="670" y="940" as="sourcePoint" />
            <mxPoint x="830" y="940" as="targetPoint" />
          </mxGeometry>
        </mxCell>
        <mxCell id="Vg_fdwR3Dp5vmPGhpIbs-18" value="CommandObjects" style="swimlane;fontStyle=1;childLayout=stackLayout;horizontal=1;startSize=26;fillColor=none;horizontalStack=0;resizeParent=1;resizeParentMax=0;resizeLast=0;collapsible=1;marginBottom=0;" vertex="1" parent="1">
          <mxGeometry x="120" y="847" width="130" height="50" as="geometry" />
        </mxCell>
        <mxCell id="Vg_fdwR3Dp5vmPGhpIbs-19" value="1" style="endArrow=open;html=1;endSize=12;startArrow=diamondThin;startSize=14;startFill=1;edgeStyle=orthogonalEdgeStyle;align=left;verticalAlign=bottom;rounded=0;exitX=1;exitY=0.5;exitDx=0;exitDy=0;entryX=0;entryY=0.5;entryDx=0;entryDy=0;" edge="1" parent="1" source="Vg_fdwR3Dp5vmPGhpIbs-18" target="Vg_fdwR3Dp5vmPGhpIbs-6">
          <mxGeometry x="-0.9258" y="-18" relative="1" as="geometry">
            <mxPoint x="200" y="820" as="sourcePoint" />
            <mxPoint x="360" y="820" as="targetPoint" />
            <Array as="points">
              <mxPoint x="520" y="872" />
              <mxPoint x="520" y="723" />
            </Array>
            <mxPoint as="offset" />
          </mxGeometry>
        </mxCell>
        <mxCell id="Vg_fdwR3Dp5vmPGhpIbs-20" value="1" style="endArrow=open;html=1;endSize=12;startArrow=diamondThin;startSize=14;startFill=1;edgeStyle=orthogonalEdgeStyle;align=left;verticalAlign=bottom;rounded=0;entryX=0;entryY=0.5;entryDx=0;entryDy=0;exitX=1.003;exitY=0.167;exitDx=0;exitDy=0;exitPerimeter=0;" edge="1" parent="1" source="Vg_fdwR3Dp5vmPGhpIbs-4" target="Vg_fdwR3Dp5vmPGhpIbs-6">
          <mxGeometry x="-0.8228" y="-27" relative="1" as="geometry">
            <mxPoint x="500" y="660" as="sourcePoint" />
            <mxPoint x="640" y="723" as="targetPoint" />
            <Array as="points" />
            <mxPoint as="offset" />
          </mxGeometry>
        </mxCell>
        <mxCell id="Vg_fdwR3Dp5vmPGhpIbs-21" value="" style="endArrow=block;dashed=1;endFill=0;endSize=12;html=1;rounded=0;exitX=-0.009;exitY=0.105;exitDx=0;exitDy=0;exitPerimeter=0;entryX=1.006;entryY=0.028;entryDx=0;entryDy=0;entryPerimeter=0;" edge="1" parent="1" source="Vg_fdwR3Dp5vmPGhpIbs-14" target="Vg_fdwR3Dp5vmPGhpIbs-10">
          <mxGeometry width="160" relative="1" as="geometry">
            <mxPoint x="500" y="480" as="sourcePoint" />
            <mxPoint x="660" y="480" as="targetPoint" />
          </mxGeometry>
        </mxCell>
        <mxCell id="Vg_fdwR3Dp5vmPGhpIbs-22" value="1" style="endArrow=open;html=1;endSize=12;startArrow=diamondThin;startSize=14;startFill=1;edgeStyle=orthogonalEdgeStyle;align=left;verticalAlign=bottom;rounded=0;entryX=0;entryY=0.5;entryDx=0;entryDy=0;exitX=0.463;exitY=1.035;exitDx=0;exitDy=0;exitPerimeter=0;" edge="1" parent="1" source="Vg_fdwR3Dp5vmPGhpIbs-10" target="Vg_fdwR3Dp5vmPGhpIbs-6">
          <mxGeometry x="-0.9012" y="-12" relative="1" as="geometry">
            <mxPoint x="310" y="550" as="sourcePoint" />
            <mxPoint x="640" y="723" as="targetPoint" />
            <Array as="points">
              <mxPoint x="282" y="540" />
              <mxPoint x="520" y="540" />
              <mxPoint x="520" y="723" />
            </Array>
            <mxPoint as="offset" />
          </mxGeometry>
        </mxCell>
      </root>
    </mxGraphModel>
  </diagram>
</mxfile>
